<?xml version="1.0" standalone="no"?>
<!DOCTYPE svg PUBLIC "-//W3C//DTD SVG 20010904//EN"
 "http://www.w3.org/TR/2001/REC-SVG-20010904/DTD/svg10.dtd">
<svg version="1.0" xmlns="http://www.w3.org/2000/svg"
 width="665.000000pt" height="665.000000pt" viewBox="0 0 665.000000 665.000000"
 preserveAspectRatio="xMidYMid meet">
<metadata>
Created by potrace 1.11, written by Peter Selinger 2001-2013
</metadata>
<g transform="translate(0.000000,665.000000) scale(0.100000,-0.100000)"
fill="#000000" stroke="none">
<path d="M3307 5923 c-4 -3 -7 -73 -7 -154 0 -131 2 -149 18 -158 9 -5 78 -12
152 -15 74 -4 158 -11 185 -16 28 -5 86 -14 130 -20 130 -18 277 -59 490 -138
117 -44 119 -44 250 -109 444 -220 838 -584 1107 -1023 37 -61 68 -113 68
-115 0 -3 24 -54 54 -114 98 -198 199 -514 226 -701 5 -36 14 -94 19 -130 6
-36 14 -125 17 -198 7 -132 7 -134 33 -144 33 -12 287 -6 300 7 10 10 -10 350
-23 410 -3 11 -10 56 -16 100 -10 67 -76 346 -94 395 -102 290 -175 450 -301
660 -165 277 -365 511 -650 761 -370 326 -942 588 -1465 673 -193 32 -474 48
-493 29z"/>
<path d="M3306 5114 c-10 -27 -7 -274 4 -295 9 -16 22 -19 73 -19 122 0 362
-42 506 -90 393 -129 693 -341 948 -671 129 -167 267 -444 313 -628 4 -20 15
-63 23 -96 24 -95 36 -181 43 -303 9 -137 2 -132 172 -132 171 0 162 -6 162
104 0 156 -50 443 -104 599 -103 298 -279 600 -466 801 -230 247 -446 409
-710 533 -173 82 -421 161 -575 183 -44 7 -99 16 -122 21 -23 5 -91 9 -151 9
-91 0 -111 -3 -116 -16z"/>
<path d="M3310 4320 c-6 -12 -9 -75 -8 -162 3 -166 -11 -150 149 -167 102 -11
268 -60 359 -106 200 -100 380 -277 484 -476 67 -127 126 -342 126 -457 0 -40
4 -53 19 -62 21 -11 251 -14 289 -4 20 6 22 12 22 83 0 72 -18 190 -40 274 -5
20 -14 52 -19 70 -31 115 -144 338 -223 440 -262 337 -600 527 -1024 576 -120
14 -122 14 -134 -9z"/>
<path d="M3269 3602 c-25 -42 -254 -420 -508 -839 -253 -419 -461 -765 -461
-770 0 -4 73 -51 163 -103 89 -52 311 -182 492 -288 182 -107 340 -199 352
-205 19 -8 80 24 460 248 241 142 471 277 510 299 40 23 73 44 73 48 0 4 -91
157 -201 340 -111 183 -250 412 -308 508 -58 97 -196 325 -306 507 -110 183
-204 332 -210 332 -5 1 -31 -34 -56 -77z"/>
<path d="M2300 1803 c0 -5 82 -123 183 -264 100 -140 328 -461 507 -712 179
-251 330 -456 335 -456 6 0 93 117 195 261 102 144 203 287 226 317 22 31 163
229 314 441 150 212 278 391 283 398 5 7 7 15 5 18 -5 4 -376 -210 -748 -431
-58 -34 -144 -85 -192 -113 l-87 -51 -88 53 c-48 29 -142 85 -208 123 -66 39
-254 150 -419 247 -164 97 -300 176 -302 176 -2 0 -4 -3 -4 -7z"/>
</g>
</svg>
